<?xml version="1.0" standalone="no"?>
<!DOCTYPE svg PUBLIC "-//W3C//DTD SVG 20010904//EN"
 "http://www.w3.org/TR/2001/REC-SVG-20010904/DTD/svg10.dtd">
<svg version="1.0" xmlns="http://www.w3.org/2000/svg"
 width="1181.000000pt" height="748.000000pt" viewBox="0 0 1181.000000 748.000000"
 preserveAspectRatio="xMidYMid meet">

<g transform="translate(0.000000,748.000000) scale(0.100000,-0.100000)"
fill="#000000" stroke="none">
<path d="M7650 7084 c-818 -59 -1556 -388 -2133 -953 -270 -264 -494 -571
-658 -903 -30 -60 -57 -108 -60 -108 -4 0 -43 24 -86 54 -356 244 -753 390
-1199 442 -168 20 -502 14 -664 -10 -1018 -156 -1854 -887 -2135 -1865 -230
-802 -70 -1658 435 -2321 l58 -76 -19 -94 c-24 -125 -24 -241 0 -319 38 -122
123 -219 239 -274 l67 -32 340 -5 340 -5 115 -46 c622 -249 1356 -234 1989 40
l90 39 73 -28 c105 -41 192 -54 322 -47 136 7 213 26 335 83 120 56 198 112
291 210 l76 79 69 -58 c305 -256 723 -380 1174 -349 131 10 135 9 235 -20 135
-39 362 -84 526 -105 186 -23 594 -23 780 0 391 50 746 155 1086 321 l148 73
56 -56 c58 -58 136 -103 211 -120 26 -6 238 -11 525 -11 453 0 486 1 546 20
177 55 301 202 328 388 12 86 14 65 -76 927 l-66 630 41 130 c71 229 116 443
142 675 19 165 17 571 -4 740 -97 770 -419 1434 -961 1976 -541 540 -1214 868
-1971 959 -126 16 -494 27 -605 19z m380 -309 c512 -80 980 -283 1370 -595
129 -104 330 -303 432 -430 174 -217 339 -500 441 -760 44 -111 87 -245 87
-269 0 -8 -119 -11 -447 -11 -485 0 -502 -2 -609 -56 -67 -34 -142 -104 -187
-175 -18 -30 -226 -443 -461 -919 -235 -476 -431 -869 -435 -873 -5 -5 -22 16
-39 45 -16 29 -53 81 -81 116 -28 34 -51 64 -51 66 0 2 42 24 93 49 153 75
259 181 332 332 52 107 71 176 86 315 31 286 -75 567 -300 791 -202 202 -465
324 -802 373 -124 19 -431 21 -559 6 -525 -65 -929 -300 -1179 -684 -28 -43
-51 -84 -51 -90 0 -6 -36 61 -79 149 -132 266 -300 503 -502 706 l-107 107 42
99 c93 217 220 434 375 638 89 118 350 383 471 479 430 340 930 545 1485 606
125 14 553 4 675 -15z m-4665 -1390 c884 -136 1599 -795 1820 -1674 49 -199
60 -299 59 -561 0 -301 -25 -466 -110 -723 -21 -64 -29 -77 -43 -72 -102 41
-313 43 -456 6 -99 -26 -240 -95 -320 -154 l-59 -45 -34 96 c-18 54 -36 104
-38 112 -3 10 22 36 72 75 101 79 233 220 299 320 151 229 219 462 219 755 0
213 -32 356 -115 524 -186 375 -558 605 -1119 693 -159 25 -655 25 -880 0
-342 -38 -508 -74 -623 -134 -116 -61 -195 -152 -241 -277 -13 -34 -130 -613
-262 -1293 -131 -678 -242 -1233 -247 -1233 -13 0 -142 204 -201 318 -169 331
-246 655 -246 1037 0 377 70 686 230 1010 341 692 1005 1156 1765 1235 120 12
406 4 530 -15z m3835 -815 c333 -41 616 -202 746 -424 60 -102 85 -193 85
-309 -1 -161 -34 -258 -119 -349 -84 -90 -211 -134 -359 -125 -183 11 -306
113 -372 310 -34 101 -73 159 -133 199 -105 71 -214 62 -299 -22 -86 -86 -109
-233 -55 -344 52 -107 142 -179 431 -346 291 -168 410 -258 515 -389 121 -153
170 -300 170 -517 0 -512 -267 -928 -714 -1110 -310 -126 -720 -164 -1034 -95
-327 72 -609 284 -710 534 -51 126 -62 241 -37 380 43 246 219 397 460 397
121 0 220 -37 302 -113 56 -52 87 -104 119 -203 35 -106 58 -148 112 -206 55
-59 106 -87 170 -95 150 -17 262 102 262 280 0 55 -6 84 -25 125 -54 117 -128
180 -418 361 -233 145 -299 192 -396 285 -209 202 -287 425 -252 725 34 292
143 522 334 708 196 190 444 300 767 342 95 12 352 13 450 1z m-3883 -44 c341
-50 598 -172 750 -355 59 -71 134 -216 153 -296 61 -260 7 -569 -139 -783
-110 -162 -294 -312 -522 -427 l-70 -36 60 -65 c67 -71 125 -176 166 -298 28
-83 185 -959 185 -1031 0 -54 -21 -95 -60 -119 -25 -14 -79 -16 -473 -16
l-445 0 -30 25 c-16 13 -34 37 -40 52 -6 16 -32 235 -57 488 -25 253 -53 496
-61 540 -27 137 -85 212 -158 203 l-30 -3 -117 -605 c-65 -333 -125 -616 -132
-630 -8 -14 -30 -35 -47 -48 -33 -22 -34 -22 -447 -22 l-415 0 -29 29 c-23 24
-29 38 -29 74 0 40 574 3026 601 3123 12 46 45 86 87 108 84 44 318 79 727
110 104 8 474 -4 572 -18z m6932 -41 c16 -8 34 -28 40 -46 14 -41 331 -3082
331 -3177 0 -46 -6 -84 -15 -102 -31 -60 -31 -60 -515 -60 -466 0 -487 2 -504
47 -4 9 -10 113 -13 230 l-6 213 -401 0 -401 0 -59 -143 c-99 -239 -133 -306
-169 -327 -30 -19 -53 -20 -432 -20 -444 0 -435 -1 -454 65 -6 23 -6 48 1 72
11 43 1528 3117 1568 3178 14 22 41 50 59 62 l34 23 454 0 c380 0 459 -2 482
-15z m-5428 -2334 c306 -115 407 -495 213 -807 -167 -270 -503 -372 -734 -224
-183 118 -261 345 -200 585 85 333 438 551 721 446z"/>
<path d="M2847 3923 c-3 -5 -49 -229 -101 -499 -53 -269 -98 -499 -101 -511
-5 -22 -3 -23 69 -23 186 0 331 98 422 285 100 206 121 473 48 616 -26 52 -68
89 -128 114 -45 19 -200 32 -209 18z"/>
<path d="M9512 3463 c-101 -301 -245 -669 -467 -1195 l-15 -38 265 0 265 0 -2
523 c0 293 4 601 11 701 6 99 9 181 7 183 -2 2 -31 -76 -64 -174z"/>
</g>
</svg>
